<svg xmlns="http://www.w3.org/2000/svg" xmlns:xlink="http://www.w3.org/1999/xlink" width="1366" zoomAndPan="magnify" viewBox="0 0 1024.5 576" height="768" preserveAspectRatio="xMidYMid meet" version="1.0"><defs><clipPath id="62fcf0e647"><path d="M 0 9 L 88.457031 9 L 88.457031 98 L 0 98 Z M 0 9 " clip-rule="nonzero"/></clipPath></defs><g clip-path="url(#62fcf0e647)"><path fill="#007aff" d="M 0 48.769531 C 0 30.320312 0 21.09375 5.734375 15.363281 C 11.46875 9.632812 20.699219 9.632812 39.160156 9.632812 L 48.953125 9.632812 C 67.414062 9.632812 76.644531 9.632812 82.378906 15.363281 C 88.113281 21.09375 88.113281 30.320312 88.113281 48.769531 L 88.113281 58.554688 C 88.113281 77.003906 88.113281 86.230469 82.378906 91.960938 C 76.644531 97.691406 67.414062 97.691406 48.953125 97.691406 L 39.160156 97.691406 C 20.699219 97.691406 11.46875 97.691406 5.734375 91.960938 C 0 86.230469 0 77.003906 0 58.554688 Z M 73.425781 31.648438 C 73.425781 35.699219 70.140625 38.984375 66.085938 38.984375 C 62.03125 38.984375 58.742188 35.699219 58.742188 31.648438 C 58.742188 27.59375 62.03125 24.308594 66.085938 24.308594 C 70.140625 24.308594 73.425781 27.59375 73.425781 31.648438 Z M 53.847656 58.554688 C 53.847656 63.957031 49.464844 68.339844 44.054688 68.339844 C 38.648438 68.339844 34.265625 63.957031 34.265625 58.554688 C 34.265625 53.152344 38.648438 48.769531 44.054688 48.769531 C 49.464844 48.769531 53.847656 53.152344 53.847656 58.554688 Z M 63.636719 58.554688 C 63.636719 69.363281 54.871094 78.125 44.054688 78.125 C 33.242188 78.125 24.476562 69.363281 24.476562 58.554688 C 24.476562 47.746094 33.242188 38.984375 44.054688 38.984375 C 54.871094 38.984375 63.636719 47.746094 63.636719 58.554688 Z M 63.636719 58.554688 " fill-opacity="1" fill-rule="evenodd"/></g></svg>